<svg xmlns="http://www.w3.org/2000/svg" width="151.2" height="156.988" viewBox="0 0 151.2 156.988">
  <g id="Group" transform="translate(-1.111 -24)">
    <path id="Path_11601" data-name="Path 11601" d="M11.592.252A11.9,11.9,0,0,1,4.32-1.854a7.61,7.61,0,0,1-3.06-6.03H8.784A2.808,2.808,0,0,0,9.576-5.94a2.546,2.546,0,0,0,1.764.612,2.546,2.546,0,0,0,1.6-.486,1.609,1.609,0,0,0,.63-1.35,1.909,1.909,0,0,0-1.044-1.728A18.4,18.4,0,0,0,9.144-10.26a30.476,30.476,0,0,1-4.014-1.6A7.7,7.7,0,0,1,2.466-14.13a6.29,6.29,0,0,1-1.134-3.906A7.12,7.12,0,0,1,2.556-22.23,7.574,7.574,0,0,1,5.94-24.876a12.628,12.628,0,0,1,4.9-.9,11.172,11.172,0,0,1,7.074,2.07,7.445,7.445,0,0,1,2.826,5.814H13.068a2.261,2.261,0,0,0-.7-1.728,2.52,2.52,0,0,0-1.71-.576,1.829,1.829,0,0,0-1.3.468,1.728,1.728,0,0,0-.5,1.332,1.644,1.644,0,0,0,.558,1.242,5.122,5.122,0,0,0,1.386.9q.828.378,2.448.954a30.078,30.078,0,0,1,3.978,1.638,8.127,8.127,0,0,1,2.7,2.268A5.831,5.831,0,0,1,21.06-7.7a7.471,7.471,0,0,1-1.134,4.068A7.787,7.787,0,0,1,16.65-.792,11.429,11.429,0,0,1,11.592.252ZM27.9-22.068a4.309,4.309,0,0,1-3.006-1.026,3.325,3.325,0,0,1-1.134-2.574A3.42,3.42,0,0,1,24.894-28.3,4.263,4.263,0,0,1,27.9-29.34,4.212,4.212,0,0,1,30.87-28.3,3.42,3.42,0,0,1,32-25.668a3.325,3.325,0,0,1-1.134,2.574A4.257,4.257,0,0,1,27.9-22.068ZM31.392-20.2V0H24.336V-20.2ZM47.34-6.012V0H44.28q-7.74,0-7.74-7.668v-6.66H34.056V-20.2H36.54v-4.9h7.092v4.9H47.3v5.868H43.632V-7.56a1.585,1.585,0,0,0,.378,1.188,1.828,1.828,0,0,0,1.278.36Zm22.536-4.32a12.791,12.791,0,0,1-.108,1.656H56.412A3.715,3.715,0,0,0,57.33-6.21a2.8,2.8,0,0,0,2.07.81,2.594,2.594,0,0,0,2.52-1.584h7.524a8.8,8.8,0,0,1-1.818,3.726,9.374,9.374,0,0,1-3.4,2.574,10.8,10.8,0,0,1-4.536.936,10.955,10.955,0,0,1-5.31-1.26,9.049,9.049,0,0,1-3.636-3.6,11.067,11.067,0,0,1-1.314-5.508,11.088,11.088,0,0,1,1.3-5.49,8.962,8.962,0,0,1,3.618-3.582,11.031,11.031,0,0,1,5.346-1.26,11.109,11.109,0,0,1,5.292,1.224,8.816,8.816,0,0,1,3.6,3.51A10.732,10.732,0,0,1,69.876-10.332Zm-7.2-1.764a2.533,2.533,0,0,0-.864-2.034,3.209,3.209,0,0,0-2.16-.738,3.171,3.171,0,0,0-2.124.7,3.416,3.416,0,0,0-1.08,2.07ZM102.384-25.38V0H95.328V-14L90.54,0h-5.9L79.812-14.112V0H72.756V-25.38h8.532L87.66-8.892,93.888-25.38Zm2.88,15.264a12.414,12.414,0,0,1,1.134-5.472,8.622,8.622,0,0,1,3.1-3.6,7.924,7.924,0,0,1,4.374-1.26,7.388,7.388,0,0,1,3.6.828,5.992,5.992,0,0,1,2.34,2.232V-20.2h7.056V0h-7.056V-2.808A5.962,5.962,0,0,1,117.45-.576a7.414,7.414,0,0,1-3.582.828,7.924,7.924,0,0,1-4.374-1.26,8.6,8.6,0,0,1-3.1-3.618A12.532,12.532,0,0,1,105.264-10.116Zm14.544,0a4.257,4.257,0,0,0-1.062-3.06,3.462,3.462,0,0,0-2.61-1.116,3.473,3.473,0,0,0-2.628,1.1,4.289,4.289,0,0,0-1.044,3.078,4.368,4.368,0,0,0,1.044,3.078A3.42,3.42,0,0,0,116.136-5.9a3.462,3.462,0,0,0,2.61-1.116A4.309,4.309,0,0,0,119.808-10.116Zm18.144-7.272a5.992,5.992,0,0,1,2.34-2.232,7.309,7.309,0,0,1,3.564-.828,7.924,7.924,0,0,1,4.374,1.26,8.623,8.623,0,0,1,3.1,3.6,12.414,12.414,0,0,1,1.134,5.472,12.532,12.532,0,0,1-1.134,5.49,8.6,8.6,0,0,1-3.1,3.618,7.924,7.924,0,0,1-4.374,1.26,7.2,7.2,0,0,1-3.546-.828,6.3,6.3,0,0,1-2.358-2.232V9.648H130.9V-20.2h7.056Zm7.344,7.272a4.244,4.244,0,0,0-1.062-3.078,3.489,3.489,0,0,0-2.61-1.1,3.462,3.462,0,0,0-2.61,1.116,4.257,4.257,0,0,0-1.062,3.06,4.309,4.309,0,0,0,1.062,3.1,3.462,3.462,0,0,0,2.61,1.116,3.436,3.436,0,0,0,2.61-1.134A4.323,4.323,0,0,0,145.3-10.116Z" transform="translate(-0.149 171.34)" fill="#fff"/>
    <path id="Shape_1_0_25x" d="M120.118,54.93h-37.4v-40.2H76.971v40.2h-43.1a2.927,2.927,0,0,0-2.043.85A2.816,2.816,0,0,0,31,57.8V86.5a2.808,2.808,0,0,0,1.421,2.484,2.922,2.922,0,0,0,2.9,0A2.807,2.807,0,0,0,36.746,86.5V60.664h80.507V86.5a2.874,2.874,0,0,0,5.747,0V57.8a2.866,2.866,0,0,0-2.882-2.865Zm16.974,49.177H102.908a2.947,2.947,0,0,0,0,5.893h34.184a2.947,2.947,0,0,0,0-5.893ZM97.145,0H62.856A2.929,2.929,0,0,0,60,2.946a2.929,2.929,0,0,0,2.856,2.946H97.144A2.929,2.929,0,0,0,100,2.946,2.929,2.929,0,0,0,97.144,0ZM51.1,104.107H16.908a2.947,2.947,0,0,0,0,5.893H51.095a2.947,2.947,0,0,0-.006-5.893Z" transform="translate(0.111 24)" fill="#fff" fill-rule="evenodd"/>
  </g>
</svg>
